PathFileType	4	(X/Y/Z)	/Users/niels/Desktop/University/Third Semester/Perception and Action/Exam/Gymnastics Motion Tracking/Code for Gym Tracking/Analyzed Data/Webcam_Backflip/id6_5_pure_Sports2D/id6_5_pure_Sports2D_px_person00.trc
DataRate	CameraRate	NumFrames	NumMarkers	Units	OrigDataRate	OrigDataStartFrame	OrigNumFrames
29.81132075471698	29.81132075471698	10	22	m	29.81132075471698	59	159
Frame#	Time	Hip			RHip			RKnee			RAnkle			RBigToe			RSmallToe			RHeel			LHip			LKnee			LAnkle			LBigToe			LSmallToe			LHeel			Neck			Head			Nose			RShoulder			RElbow			RWrist			LShoulder			LElbow			LWrist		
		X1	Y1	Z1	X2	Y2	Z2	X3	Y3	Z3	X4	Y4	Z4	X5	Y5	Z5	X6	Y6	Z6	X7	Y7	Z7	X8	Y8	Z8	X9	Y9	Z9	X10	Y10	Z10	X11	Y11	Z11	X12	Y12	Z12	X13	Y13	Z13	X14	Y14	Z14	X15	Y15	Z15	X16	Y16	Z16	X17	Y17	Z17	X18	Y18	Z18	X19	Y19	Z19	X20	Y20	Z20	X21	Y21	Z21	X22	Y22	Z22
59	1.9791139240506328	0.9129340569734079	-0.5474161454251383	0.0	0.9116653176586916	-0.5483100921032394	0.0	0.9339049581320036	-0.6474428293769907	0.0	0.8870314473219972	-0.7361230479657161	0.0	0.8954072853431411	-0.7716167735724961	0.0	0.8916008361980834	-0.7716764979198311	0.0	0.8706463416612654	-0.7450841349266377	0.0	0.9137076097938789	-0.5451391050990183	0.0	0.9288989407610984	-0.645657534031182	0.0	0.8874581909213233	-0.7327883750025721	0.0	0.9036794985929336	-0.7692533848632434	0.0	0.8996864884816199	-0.7635895791513599	0.0	0.872004747998912	-0.7417895494665712	0.0	0.9526359317523954	-0.42476069805326716	0.0	0.9996464538206995	-0.36715368565321765	0.0	0.9885068650856133	-0.40025397350200714	0.0	0.9494048999245783	-0.4291775872131943	0.0	1.0150120407010295	-0.39963839576951643	0.0	1.0627219923168287	-0.3648547503430521	0.0	0.9470913312112256	-0.4265067554006225	0.0	1.007305751847833	-0.4101029574810009	0.0	1.0542608818015373	-0.37535313133306375	0.0
60	2.0126582278481013	0.9161676838391624	-0.5162888653428028	0.0	0.914795322945615	-0.516726265256541	0.0	0.9382198701520653	-0.617420385057353	0.0	0.8931730440635773	-0.7075518458383818	0.0	0.9006776723968587	-0.7481953161853481	0.0	0.8962891052439768	-0.7475976950165616	0.0	0.8773573489942476	-0.7161503383683196	0.0	0.9158340145675098	-0.5135603842482092	0.0	0.9328134290762039	-0.6156158847469742	0.0	0.8928171328416858	-0.7043611227921031	0.0	0.9046836252771869	-0.7452688474498809	0.0	0.9017676835968043	-0.7394964243127818	0.0	0.877807534327815	-0.7129556901873123	0.0	0.9576859863374878	-0.3960603255175275	0.0	1.006400661399165	-0.33832047956042155	0.0	0.9948113759349595	-0.3720983542550075	0.0	0.9541556176027217	-0.39855679988732967	0.0	1.0192722521474444	-0.3749029779177014	0.0	1.0704719363448714	-0.34130194300705285	0.0	0.9529359149150195	-0.3977750155350827	0.0	1.0095803630805182	-0.39250985218214934	0.0	1.0620328237603769	-0.36145395205468484	0.0
61	2.0462025316455694	0.9194625810856625	-0.4879601163580361	0.0	0.9180037617362108	-0.4877164328006044	0.0	0.9428406226244339	-0.58979992224885	0.0	0.9005725729316092	-0.6808066108007499	0.0	0.9068619610268169	-0.7257013750079234	0.0	0.9022368013596732	-0.7247043230505065	0.0	0.8854716185341188	-0.6892141627752786	0.0	0.9181764416132604	-0.4847606233610913	0.0	0.9369770192876656	-0.5879410092002257	0.0	0.8989404178324308	-0.6778671549149166	0.0	0.9065895195993061	-0.7222705576877136	0.0	0.9042716948965546	-0.7164636105933456	0.0	0.8844790186283958	-0.6860238803884893	0.0	0.9634974684857492	-0.3689525445899716	0.0	1.0144914175673734	-0.31175481653150705	0.0	1.0019651892280612	-0.3463033618599257	0.0	0.9596411621069024	-0.36963944211095223	0.0	1.0238324096787206	-0.3535790216921037	0.0	1.0780541574809528	-0.3202952923920077	0.0	0.9586910166366562	-0.3709430963985127	0.0	1.0091839857913305	-0.37919961914987693	0.0	1.0644376220871774	-0.3529822862357856	0.0
62	2.079746835443038	0.9228327618152183	-0.46337072966989473	0.0	0.9212917406570196	-0.46236260087278014	0.0	0.9477143890817582	-0.5653915370333338	0.0	0.9091689567479725	-0.6571375468946369	0.0	0.9147127231454761	-0.7050495166925226	0.0	0.9099754964836451	-0.7039766421322718	0.0	0.8948057385635096	-0.665977849385714	0.0	0.9209783299386081	-0.459864968497313	0.0	0.9413215737487569	-0.5636124073674076	0.0	0.9055724828517158	-0.6543641090693173	0.0	0.9102626996112719	-0.7010903434182886	0.0	0.9079162023410553	-0.6951139769702315	0.0	0.8916162600679657	-0.6624528063133635	0.0	0.9698101692906991	-0.34460453063873914	0.0	1.0234801826561875	-0.2884798142340681	0.0	1.0098084472086855	-0.3238053115902177	0.0	0.9655192570971325	-0.3437781086825629	0.0	1.028838142880531	-0.33698648839325346	0.0	1.0857390366298245	-0.3039580236093797	0.0	0.9641649660218511	-0.3469769192891236	0.0	1.0075893706550876	-0.3694532545337909	0.0	1.0644521266707858	-0.3491984326841809	0.0
63	2.113291139240506	0.9263365263530117	-0.44280948367169504	0.0	0.924675413239284	-0.4410781432998127	0.0	0.9527449549053935	-0.544555063908871	0.0	0.9188797632591548	-0.6373771563598999	0.0	0.9248620997697802	-0.6870664085356859	0.0	0.9199356612185505	-0.6862186810330998	0.0	0.9052731897534525	-0.6474239501784129	0.0	0.924367200169836	-0.4392081629801981	0.0	0.945704297468578	-0.5430551440237888	0.0	0.9125169256143671	-0.6345671708101887	0.0	0.9161804642157464	-0.6824783663095242	0.0	0.913298134502556	-0.6761214869962262	0.0	0.8990207296570225	-0.6432090269792511	0.0	0.9762859137755546	-0.3238181490298347	0.0	1.0324523452081007	-0.2690131854341744	0.0	1.0178085503431284	-0.3050178825560318	0.0	0.9713708953354037	-0.321895879962312	0.0	1.0342002174480613	-0.32538967223603976	0.0	1.0936233444041814	-0.2939517436654872	0.0	0.9693906770174266	-0.32652045485848863	0.0	1.0062371719915988	-0.3620322245043845	0.0	1.0643499269292633	-0.34881256166890295	0.0
64	2.1468354430379746	0.930004448167885	-0.4261314335129393	0.0	0.9281666327493466	-0.423819681767439	0.0	0.9578107823093218	-0.5273785319912586	0.0	0.9294297603561172	-0.6218259190789105	0.0	0.9372993654241303	-0.6722845680937233	0.0	0.9320170696588596	-0.671853318033894	0.0	0.9166371609929314	-0.633649166377935	0.0	0.9282481146837998	-0.4225916064205546	0.0	0.9499512610298776	-0.5263010451463419	0.0	0.9197108704206064	-0.618802293849893	0.0	0.9244020463839645	-0.6669706434412764	0.0	0.9207299637353906	-0.6601077501985994	0.0	0.9067364873098367	-0.6285814076250785	0.0	0.9826252523019154	-0.3069537024710331	0.0	1.0405442835454628	-0.25340781349194286	0.0	1.0253452729844577	-0.2899566237501755	0.0	0.9769256424869457	-0.30443806324445954	0.0	1.0394709813441272	-0.3184159580019723	0.0	1.1012812420047198	-0.2912579324410303	0.0	0.9744512622487912	-0.3099110583757521	0.0	1.0059727826571823	-0.35615432628931093	0.0	1.0649665510747477	-0.3510806341551846	0.0
65	2.180379746835443	0.9337962878308506	-0.41305386627289215	0.0	0.9318080091370204	-0.4103748217201476	0.0	0.9627968384009764	-0.5138163594397718	0.0	0.9402553055587342	-0.6103718242346967	0.0	0.9511754319552354	-0.6609223190073135	0.0	0.9454308722046585	-0.6609407092378264	0.0	0.92828779377043	-0.6241216176934534	0.0	0.9323315121461369	-0.40967855989151153	0.0	0.9539145048429254	-0.5132194989436766	0.0	0.9272366631833724	-0.6070881920657698	0.0	0.9347901184284927	-0.6548592314166589	0.0	0.9302441151457678	-0.6475264376012912	0.0	0.9149310289727771	-0.618371424601195	0.0	0.9886351067874161	-0.2940162889630753	0.0	1.047405420975638	-0.24146885679153926	0.0	1.0320551313058146	-0.27845930149191456	0.0	0.9821540634377742	-0.2914506745357151	0.0	1.044006628267754	-0.3155517586958659	0.0	1.1077764635564642	-0.29600617807155793	0.0	0.9793569173465864	-0.2971999272198856	0.0	1.0069471193824948	-0.3517173824213785	0.0	1.0659187929130014	-0.35586896304464094	0.0
66	2.213924050632911	0.937617311578659	-0.4034087093911605	0.0	0.9356540294475326	-0.4006021881649432	0.0	0.967640909979602	-0.5038028455839085	0.0	0.9506970218780053	-0.6027410823359699	0.0	0.9651567368751817	-0.6530479602374998	0.0	0.9590108435252448	-0.6533985231076225	0.0	0.9394424228577045	-0.6181473146332983	0.0	0.9362534729068014	-0.40026795275336824	0.0	0.9575548897265826	-0.5036830253947897	0.0	0.9352274858551094	-0.5992751083300009	0.0	0.9469910772292105	-0.6463432605851548	0.0	0.941604400779734	-0.6386950632950356	0.0	0.923704057705107	-0.6121862074613432	0.0	0.9942062277111274	-0.2848772549605665	0.0	1.0531549983867916	-0.23298278249289203	0.0	1.037877374897	-0.2703342404340557	0.0	0.9871700449580376	-0.2828242381214428	0.0	1.0472480620350386	-0.31640662872528613	0.0	1.1120077303112297	-0.30745927769893766	0.0	0.9840698954582566	-0.2882996615791364	0.0	1.00881099592205	-0.3491049540236855	0.0	1.0662260563555503	-0.3631925805286527	0.0
67	2.2474683544303797	0.9413532507257517	-0.3972383154013926	0.0	0.93972439226099	-0.39452720657164053	0.0	0.9723525715956854	-0.4973380411494029	0.0	0.9603285552996434	-0.598699705987882	0.0	0.9781372752807673	-0.6487157881545578	0.0	0.9717727323407742	-0.6492016629646333	0.0	0.949577610214916	-0.615241429495739	0.0	0.9397142069401873	-0.39435210306968316	0.0	0.9610019594866197	-0.49762429732043534	0.0	0.9437192018324786	-0.5951402427198764	0.0	0.9603533999757596	-0.6416303766032683	0.0	0.9543861431581667	-0.6338625650605888	0.0	0.9329502513561957	-0.6095727591970996	0.0	0.9993405365784753	-0.27944719313805033	0.0	1.058100765630674	-0.227826054200401	0.0	1.0429911074870866	-0.2654324985162186	0.0	0.9921548274818701	-0.2784912747399057	0.0	1.0489430830351834	-0.3207830281832074	0.0	1.1131852021895343	-0.32423536426734995	0.0	0.9885839375447452	-0.2831268656777712	0.0	1.0110469772410684	-0.34884838595890255	0.0	1.064951684692549	-0.3728859411402069	0.0
68	2.281012658227848	0.9449186089853737	-0.394724167030608	0.0	0.9440025584786012	-0.39227747579435573	0.0	0.9769774777912653	-0.4945220537320756	0.0	0.9690903487564955	-0.5980939217990991	0.0	0.9897131996655814	-0.6478496586328357	0.0	0.9832855623306471	-0.6483110054164587	0.0	0.9586186881890796	-0.6152267201640251	0.0	0.9426211429439841	-0.39203904634399217	0.0	0.9645077947901562	-0.4950560841760107	0.0	0.9526219931279406	-0.5944738684245783	0.0	0.9741346185022728	-0.6408058714529826	0.0	0.9680855495589218	-0.6331272109007889	0.0	0.9424094495993918	-0.6101470873796968	0.0	1.0042220036976284	-0.27769095318483017	0.0	1.0625642578133465	-0.22602510027390563	0.0	1.0477622400963762	-0.26377270266978803	0.0	0.9973146128129482	-0.2784125017275814	0.0	1.0491903594549785	-0.3286033420563115	0.0	1.1110924828216837	-0.3447433054604035	0.0	0.9929670208727294	-0.281639942373894	0.0	1.0132476707598452	-0.3513264648050787	0.0	1.0616395493143738	-0.38460465818461154	0.0
